<svg width="250" height="110"  viewBox="0 0 250 110" fill="none" xmlns="http://www.w3.org/2000/svg">
<g clip-path="url(#clip0_973_369)">
<path d="M26.5 101.5V109.5M22.5 105.5H30.5M6.5 77.5V89.5M0.5 83.5H12.5" stroke="#1386ac" stroke-miterlimit="10" stroke-linecap="round"/>
<path d="M237 26C244.18 26 250 20.1797 250 13C250 5.8203 244.18 0 237 0C229.82 0 224 5.8203 224 13C224 20.1797 229.82 26 237 26Z" fill="#F3F5F5"/>
<path d="M213 42H190C187.878 42 185.843 41.1571 184.343 39.6569C182.843 38.1566 182 36.1217 182 34C182 31.8783 182.843 29.8434 184.343 28.3431C185.843 26.8429 187.878 26 190 26H195C198.448 26 201.754 24.6304 204.192 22.1924C206.63 19.7544 208 16.4478 208 13C208 9.55219 206.63 6.24558 204.192 3.80761C201.754 1.36964 198.448 0 195 0H55C51.5522 0 48.2456 1.36964 45.8076 3.80761C43.3696 6.24558 42 9.55219 42 13C42 16.4478 43.3696 19.7544 45.8076 22.1924C48.2456 24.6304 51.5522 26 55 26H56C58.1217 26 60.1566 26.8429 61.6568 28.3431C63.1571 29.8434 64 31.8783 64 34C64 36.1217 63.1571 38.1566 61.6568 39.6569C60.1566 41.1571 58.1217 42 56 42H33C31.2918 41.9966 29.5998 42.3305 28.0211 42.9826C26.4423 43.6347 25.0078 44.5921 23.8 45.8C22.5921 47.0078 21.6347 48.4423 20.9826 50.0211C20.3305 51.5998 19.9966 53.2919 20 55V55C19.9966 56.7081 20.3305 58.4002 20.9826 59.9789C21.6347 61.5577 22.5921 62.9922 23.8 64.2C25.0078 65.4079 26.4423 66.3653 28.0211 67.0174C29.5998 67.6695 31.2918 68.0034 33 68H56C58.1217 68 60.1566 68.8429 61.6568 70.3431C63.1571 71.8434 64 73.8783 64 76C64 78.1217 63.1571 80.1566 61.6568 81.6569C60.1566 83.1571 58.1217 84 56 84H51C47.5522 84 44.2456 85.3696 41.8076 87.8076C39.3696 90.2456 38 93.5522 38 97C38 100.448 39.3696 103.754 41.8076 106.192C44.2456 108.63 47.5522 110 51 110H191C194.448 110 197.754 108.63 200.192 106.192C202.63 103.754 204 100.448 204 97C204 93.5522 202.63 90.2456 200.192 87.8076C197.754 85.3696 194.448 84 191 84H190C187.878 84 185.843 83.1571 184.343 81.6569C182.843 80.1566 182 78.1217 182 76C182 73.8783 182.843 71.8434 184.343 70.3431C185.843 68.8429 187.878 68 190 68H213C214.708 68.0034 216.4 67.6695 217.979 67.0174C219.558 66.3653 220.992 65.4079 222.2 64.2C223.408 62.9922 224.365 61.5577 225.017 59.9789C225.67 58.4002 226.003 56.7081 226 55V55C226.003 53.2919 225.67 51.5998 225.017 50.0211C224.365 48.4423 223.408 47.0078 222.2 45.8C220.992 44.5921 219.558 43.6347 217.979 42.9826C216.4 42.3305 214.708 41.9966 213 42V42Z" fill="#F3F5F5"/>
<rect x="89.5" y="23.5" width="67" height="62" rx="2.5" fill="white" stroke="#84898A"/>
<path d="M92 23.5H154C155.381 23.5 156.5 24.6193 156.5 26V38.5H89.5V26C89.5 24.6193 90.6193 23.5 92 23.5Z" fill="#D9DFE0" stroke="#84898A"/>
<path d="M103.5 20V30.5H100.5V20C100.5 19.1716 101.172 18.5 102 18.5C102.828 18.5 103.5 19.1716 103.5 20Z" fill="#D9DFE0" stroke="#84898A"/>
<path d="M145.5 20V30.5H142.5V20C142.5 19.1716 143.172 18.5 144 18.5C144.828 18.5 145.5 19.1716 145.5 20Z" fill="#D9DFE0" stroke="#84898A"/>
<path d="M98 47C98 46.4477 98.4477 46 99 46H105C105.552 46 106 46.4477 106 47V53C106 53.5523 105.552 54 105 54H99C98.4477 54 98 53.5523 98 53V47Z" fill="#F3F5F5"/>
<path d="M112 47C112 46.4477 112.448 46 113 46H119C119.552 46 120 46.4477 120 47V53C120 53.5523 119.552 54 119 54H113C112.448 54 112 53.5523 112 53V47Z" fill="#F3F5F5"/>
<path d="M126 47C126 46.4477 126.448 46 127 46H133C133.552 46 134 46.4477 134 47V53C134 53.5523 133.552 54 133 54H127C126.448 54 126 53.5523 126 53V47Z" fill="#F3F5F5"/>
<path d="M140 47C140 46.4477 140.448 46 141 46H147C147.552 46 148 46.4477 148 47V53C148 53.5523 147.552 54 147 54H141C140.448 54 140 53.5523 140 53V47Z" fill="#F3F5F5"/>
<path d="M112 59C112 58.4477 112.448 58 113 58H119C119.552 58 120 58.4477 120 59V65C120 65.5523 119.552 66 119 66H113C112.448 66 112 65.5523 112 65V59Z" fill="#F3F5F5"/>
<path d="M98 71C98 70.4477 98.4477 70 99 70H105C105.552 70 106 70.4477 106 71V77C106 77.5523 105.552 78 105 78H99C98.4477 78 98 77.5523 98 77V71Z" fill="#F3F5F5"/>
<path d="M112 71C112 70.4477 112.448 70 113 70H119C119.552 70 120 70.4477 120 71V77C120 77.5523 119.552 78 119 78H113C112.448 78 112 77.5523 112 77V71Z" fill="#F3F5F5"/>
<path d="M140 59C140 58.4477 140.448 58 141 58H147C147.552 58 148 58.4477 148 59V65C148 65.5523 147.552 66 147 66H141C140.448 66 140 65.5523 140 65V59Z" fill="#F3F5F5"/>
<circle cx="144" cy="31" r="2.5" fill="white" stroke="#84898A"/>
<circle cx="102" cy="31" r="2.5" fill="white" stroke="#84898A"/>
<rect x="98" y="58" width="36" height="8" rx="4" fill="#1386ac"/>
<path d="M135.7 66.6L135.588 66.6841L135.536 66.8143L133.916 70.8637L128.077 60.8546L138.914 64.1891L135.7 66.6Z" fill="white" stroke="#84898A"/>
</g>
<defs>
<clipPath id="clip0_973_369">
<rect width="250" height="110" fill="white" margin-top='-500px'/>
</clipPath>
</defs>
</svg>